# xmcd
#
# Track frame offsets:
#	150
#	17747
#	32565
#	45750
#	60407
#	75527
#	87252
#	104220
#	119440
#	136577
#	149752
#	166817
#	180730
#	197945
#	218335
#
# Disc length: 3164 seconds
#
# Revision: 0
# Processed by: cddbd v1.5.2PL0 Copyright (c) Steve Scherf et al.
# Submitted via: EasyCDDAExtractor 16.0.8.1
#
DISCID=c40c5a0f
DTITLE=Zico and Zéca - Zico and Zéca - 2013 - Novos Tempos
DYEAR=2013
DGENRE=Sertanejo
TTITLE0=Chuva Grossa
TTITLE1=Porque 
TTITLE2=Troca Tapas
TTITLE3=Arrependido
TTITLE4=Brete Da Paixão
TTITLE5=Belo Mato Grosso
TTITLE6=Rolinha Correio
TTITLE7=Paixão Desenfreada
TTITLE8=Ecologia
TTITLE9=Você Discutiu Comigo
TTITLE10=Noite De Nossa Paixão
TTITLE11=Chão Verde
TTITLE12=Não Posso Esquecer-Te
TTITLE13=Primeiro Do Ano 
TTITLE14=Liçoes Que A Vida Ensina
EXTD=
EXTT0=
EXTT1=
EXTT2=
EXTT3=
EXTT4=
EXTT5=
EXTT6=
EXTT7=
EXTT8=
EXTT9=
EXTT10=
EXTT11=
EXTT12=
EXTT13=
EXTT14=
PLAYORDER=
